<?xml version="1.0" encoding="UTF-8"?>
<svg id="Layer_1" data-name="Layer 1" xmlns="http://www.w3.org/2000/svg" viewBox="0 0 539.22 54.39">
  <defs>
    <style>
      .cls-1 {
        fill: #fff;
      }
    </style>
  </defs>
  <path class="cls-1" d="m18.18,10.63c14.48-14.17,37.95-14.17,52.43,0l1.74,1.71c.72.71.72,1.86,0,2.57l-5.96,5.83c-.36.35-.95.35-1.31,0l-2.4-2.35c-10.1-9.88-26.48-9.88-36.58,0l-2.57,2.51c-.36.35-.95.35-1.31,0l-5.96-5.83c-.72-.71-.72-1.86,0-2.57l1.91-1.87Zm64.76,12.06l5.3,5.19c.72.71.72,1.86,0,2.57l-23.92,23.41c-.72.71-1.9.71-2.62,0l-16.98-16.61c-.18-.18-.47-.18-.66,0l-16.98,16.61c-.72.71-1.9.71-2.62,0L.54,30.45c-.72-.71-.72-1.86,0-2.57l5.3-5.19c.72-.71,1.9-.71,2.62,0l16.98,16.61c.18.18.47.18.66,0l16.98-16.61c.72-.71,1.9-.71,2.62,0l16.98,16.62c.18.18.47.18.66,0l16.98-16.61c.72-.71,1.9-.71,2.62,0Z"/>
  <path class="cls-1" d="m124.6,50.02l7.67-30.69c.46-1.69.85-3.51,1.37-6.37.39,2.86.85,4.68,1.17,6.37l6.63,30.69h13.72l11.57-45.52h-10.53l-6.37,27.96c-.65,2.73-1.04,4.88-1.5,8.06-.52-3.06-1.04-5.33-1.63-8l-6.18-28.03h-13.79l-6.7,28.03c-.59,2.67-1.04,4.81-1.56,8-.52-3.19-.98-5.33-1.56-8l-6.24-28.03h-10.99l11.51,45.52h13.4Z"/>
  <path class="cls-1" d="m175.87,51.19c5.2,0,8.52-2.15,10.21-5.27-.2.98-.26,1.95-.26,2.93v1.17h8.71v-18.79c0-8.97-4.1-14.18-14.11-14.18-8.65,0-14.31,4.81-14.83,11.44h9.56c.33-2.93,2.41-4.68,5.59-4.68,2.99,0,4.62,1.69,4.62,3.64,0,1.43-.85,2.28-3.38,2.6l-4.55.52c-6.76.85-12.55,3.32-12.55,10.47,0,6.5,5.4,10.14,10.99,10.14Zm2.93-6.7c-2.54,0-4.42-1.43-4.42-3.9s2.15-3.58,5.4-4.16l2.21-.39c1.89-.39,2.93-.72,3.58-1.3v2.99c0,4.03-2.93,6.76-6.76,6.76Z"/>
  <path class="cls-1" d="m199.49,4.5v45.52h9.43V4.5h-9.43Z"/>
  <path class="cls-1" d="m214.8,4.5v45.52h9.43V4.5h-9.43Z"/>
  <path class="cls-1" d="m245.24,51.19c8.97,0,14.76-5.07,15.41-11.7h-9.49c-.46,2.93-2.93,4.55-5.92,4.55-4.03,0-6.96-3.25-7.02-7.74h22.63v-1.82c0-10.53-5.79-17.43-15.8-17.43s-16.39,6.76-16.39,16.97c0,11.05,6.96,17.17,16.58,17.17Zm-7.09-21.07c.39-3.64,3.06-6.31,6.83-6.31s6.18,2.54,6.24,6.31h-13.07Z"/>
  <path class="cls-1" d="m281.23,50.67c2.08,0,4.1-.33,5.01-.59v-7.15c-.72.13-1.56.2-2.28.2-3.45,0-4.68-1.95-4.68-5.14v-12.49h7.67v-7.35h-7.67V6.84h-9.36v11.31h-6.89v7.35h6.89v13.79c0,7.54,3.77,11.38,11.31,11.38Z"/>
  <path class="cls-1" d="m313.05,51.19c12.88,0,20.68-7.54,21.65-18.4h-10.21c-.78,5.92-4.94,9.95-11.05,9.95-7.22,0-12.29-5.85-12.29-15.74s5.27-15.22,12.49-15.22c6.18,0,9.69,3.77,10.4,9.3h10.47c-1.04-11.31-9.36-17.75-20.81-17.75-13.07,0-23.08,8.84-23.08,23.67s8.78,24.19,22.43,24.19Z"/>
  <path class="cls-1" d="m354.72,51.19c9.82,0,16.78-6.18,16.78-16.97s-6.96-17.17-16.78-17.17-16.71,6.57-16.71,17.17,6.89,16.97,16.71,16.97Zm0-7.28c-4.36,0-7.15-3.58-7.15-9.69s2.93-9.75,7.15-9.75,7.22,3.51,7.22,9.75-2.86,9.69-7.22,9.69Z"/>
  <path class="cls-1" d="m384.64,50.02v-18.66c0-3.97,2.47-6.89,5.98-6.89,3.32,0,5.27,2.54,5.27,6.76v18.79h9.43v-20.16c0-7.67-4.03-12.81-11.25-12.81-5.01,0-8.06,2.41-9.69,5.27.19-1.17.26-2.08.26-2.93v-1.24h-9.43v31.86h9.43Z"/>
  <path class="cls-1" d="m419.96,50.02v-18.66c0-3.97,2.47-6.89,5.98-6.89,3.32,0,5.27,2.54,5.27,6.76v18.79h9.43v-20.16c0-7.67-4.03-12.81-11.25-12.81-5.01,0-8.06,2.41-9.69,5.27.19-1.17.26-2.08.26-2.93v-1.24h-9.43v31.86h9.43Z"/>
  <path class="cls-1" d="m460.93,51.19c8.97,0,14.76-5.07,15.41-11.7h-9.49c-.46,2.93-2.93,4.55-5.92,4.55-4.03,0-6.96-3.25-7.02-7.74h22.63v-1.82c0-10.53-5.79-17.43-15.8-17.43s-16.39,6.76-16.39,16.97c0,11.05,6.96,17.17,16.58,17.17Zm-7.09-21.07c.39-3.64,3.05-6.31,6.83-6.31s6.18,2.54,6.24,6.31h-13.07Z"/>
  <path class="cls-1" d="m496.78,51.19c9.88,0,15.28-5.4,16.32-13.79h-9.43c-.32,3.51-2.34,6.5-6.57,6.5s-7.22-3.97-7.22-9.82c0-6.37,3.38-9.62,7.41-9.62s5.92,2.86,6.18,6.18h9.43c-.71-7.74-5.98-13.59-15.67-13.59s-16.91,6.24-16.91,17.04,6.31,17.1,16.45,17.1Z"/>
  <path class="cls-1" d="m533.5,50.67c2.08,0,4.1-.33,5.01-.59v-7.15c-.72.13-1.56.2-2.28.2-3.45,0-4.68-1.95-4.68-5.14v-12.49h7.67v-7.35h-7.67V6.84h-9.36v11.31h-6.89v7.35h6.89v13.79c0,7.54,3.77,11.38,11.31,11.38Z"/>
</svg>